<?xml version="1.0" encoding="UTF-8"?>
<!DOCTYPE svg PUBLIC "-//W3C//DTD SVG 1.1//EN" "http://www.w3.org/Graphics/SVG/1.1/DTD/svg11.dtd">
<svg xmlns="http://www.w3.org/2000/svg" version="1.1" width="128px" height="128px" style="shape-rendering:geometricPrecision; text-rendering:geometricPrecision; image-rendering:optimizeQuality; fill-rule:evenodd; clip-rule:evenodd" xmlns:xlink="http://www.w3.org/1999/xlink">
<g><path style="opacity:1" fill="#dc0000" d="M 95.5,40.5 C 94.1667,40.5 93.5,41.1667 93.5,42.5C 92.5,42.5 91.5,42.5 90.5,42.5C 89.1242,45.658 88.4576,48.9913 88.5,52.5C 87.8333,52.5 87.1667,52.5 86.5,52.5C 85.8397,48.7273 83.5064,47.0607 79.5,47.5C 72.8912,48.1894 72.8912,48.856 79.5,49.5C 79.5,50.5 79.5,51.5 79.5,52.5C 76.4281,52.1826 73.4281,52.5159 70.5,53.5C 72.8333,54.1667 75.1667,54.8333 77.5,55.5C 75.8333,56.1667 74.1667,56.8333 72.5,57.5C 74.7427,58.4742 77.076,58.8076 79.5,58.5C 79.5,59.5 79.5,60.5 79.5,61.5C 72.8333,62.1667 72.8333,62.8333 79.5,63.5C 78.4479,65.256 76.7812,65.9227 74.5,65.5C 74.5,66.5 74.5,67.5 74.5,68.5C 72.5,68.5 70.5,68.5 68.5,68.5C 68.5,67.5 68.5,66.5 68.5,65.5C 73.6945,65.0583 73.6945,64.0583 68.5,62.5C 69.8532,61.4763 70.5198,60.143 70.5,58.5C 68.8333,58.5 67.1667,58.5 65.5,58.5C 65.5,59.5 65.5,60.5 65.5,61.5C 64.1667,61.5 62.8333,61.5 61.5,61.5C 61.5,60.5 61.5,59.5 61.5,58.5C 59.8333,58.5 58.1667,58.5 56.5,58.5C 56.4802,60.143 57.1468,61.4763 58.5,62.5C 53.3055,64.0583 53.3055,65.0583 58.5,65.5C 58.5,66.5 58.5,67.5 58.5,68.5C 56.5,68.5 54.5,68.5 52.5,68.5C 52.5,67.5 52.5,66.5 52.5,65.5C 50.2188,65.9227 48.5521,65.256 47.5,63.5C 54.1667,62.8333 54.1667,62.1667 47.5,61.5C 47.5,60.5 47.5,59.5 47.5,58.5C 49.924,58.8076 52.2573,58.4742 54.5,57.5C 52.8333,56.8333 51.1667,56.1667 49.5,55.5C 51.8333,54.8333 54.1667,54.1667 56.5,53.5C 53.5719,52.5159 50.5719,52.1826 47.5,52.5C 47.5,51.5 47.5,50.5 47.5,49.5C 49.288,49.7852 50.9547,49.4519 52.5,48.5C 49.1667,47.1667 45.8333,47.1667 42.5,48.5C 41.1468,49.5237 40.4802,50.857 40.5,52.5C 39.8333,52.5 39.1667,52.5 38.5,52.5C 38.9227,50.2188 38.256,48.5521 36.5,47.5C 36.5,45.8333 36.5,44.1667 36.5,42.5C 35.5,42.5 34.5,42.5 33.5,42.5C 33.5,41.1667 32.8333,40.5 31.5,40.5C 29.6283,38.9385 27.2949,37.9385 24.5,37.5C 19.8804,36.5067 15.2137,36.1734 10.5,36.5C 10.5,35.5 10.5,34.5 10.5,33.5C 7.845,33.3414 5.51167,32.3414 3.5,30.5C 17.4841,29.5008 31.4841,29.1674 45.5,29.5C 45.4802,27.857 46.1468,26.5237 47.5,25.5C 50.4281,24.5159 53.4281,24.1826 56.5,24.5C 56.5,23.5 56.5,22.5 56.5,21.5C 61.1667,21.5 65.8333,21.5 70.5,21.5C 70.5,22.5 70.5,23.5 70.5,24.5C 73.5719,24.1826 76.5719,24.5159 79.5,25.5C 80.8532,26.5237 81.5198,27.857 81.5,29.5C 95.5159,29.1674 109.516,29.5008 123.5,30.5C 121.488,32.3414 119.155,33.3414 116.5,33.5C 116.5,34.5 116.5,35.5 116.5,36.5C 111.786,36.1734 107.12,36.5067 102.5,37.5C 99.7051,37.9385 97.3717,38.9385 95.5,40.5 Z M 13.5,31.5 C 15.337,31.6395 15.6704,32.3061 14.5,33.5C 13.7025,33.0431 13.3691,32.3764 13.5,31.5 Z M 17.5,31.5 C 25.3005,31.1289 32.9671,31.7956 40.5,33.5C 40.5,34.5 40.5,35.5 40.5,36.5C 43.3699,36.248 45.7033,37.248 47.5,39.5C 52.7676,40.8558 58.1009,41.8558 63.5,42.5C 68.8991,41.8558 74.2324,40.8558 79.5,39.5C 81.2967,37.248 83.6301,36.248 86.5,36.5C 86.5,35.5 86.5,34.5 86.5,33.5C 94.0582,31.4608 101.725,31.1275 109.5,32.5C 104.88,33.4933 100.214,33.8266 95.5,33.5C 95.5,34.5 95.5,35.5 95.5,36.5C 88.7169,39.2118 81.7169,41.2118 74.5,42.5C 74.5,43.5 74.5,44.5 74.5,45.5C 70.9235,46.441 67.2568,47.1077 63.5,47.5C 59.7432,47.1077 56.0765,46.441 52.5,45.5C 52.5,44.5 52.5,43.5 52.5,42.5C 45.2831,41.2118 38.2831,39.2118 31.5,36.5C 31.5,35.5 31.5,34.5 31.5,33.5C 26.3814,34.1031 21.7147,33.4364 17.5,31.5 Z M 111.5,31.5 C 113.337,31.6395 113.67,32.3061 112.5,33.5C 111.702,33.0431 111.369,32.3764 111.5,31.5 Z M 58.5,49.5 C 61.8333,49.5 65.1667,49.5 68.5,49.5C 68.5,50.5 68.5,51.5 68.5,52.5C 65.1667,52.5 61.8333,52.5 58.5,52.5C 58.5,51.5 58.5,50.5 58.5,49.5 Z M 61.5,54.5 C 62.9778,54.238 64.3112,54.5713 65.5,55.5C 64.8333,55.8333 64.1667,56.1667 63.5,56.5C 62.2867,56.2528 61.62,55.5862 61.5,54.5 Z"/></g>
<g><path style="opacity:1" fill="#dc0000" d="M 31.5,40.5 C 32.8333,40.5 33.5,41.1667 33.5,42.5C 33.5,44.1667 33.5,45.8333 33.5,47.5C 34.5,47.5 35.5,47.5 36.5,47.5C 36.0773,49.7812 36.744,51.4479 38.5,52.5C 36.9818,55.3032 34.6485,57.3032 31.5,58.5C 29.2164,57.3866 26.8831,56.3866 24.5,55.5C 23.5109,54.5318 22.8443,53.3651 22.5,52C 23.9961,48.8483 25.3295,45.6816 26.5,42.5C 28.3224,42.1692 29.9891,41.5025 31.5,40.5 Z"/></g>
<g><path style="opacity:1" fill="#dc0000" d="M 95.5,40.5 C 97.0109,41.5025 98.6776,42.1692 100.5,42.5C 101.671,45.6816 103.004,48.8483 104.5,52C 104.156,53.3651 103.489,54.5318 102.5,55.5C 100.117,56.3866 97.7836,57.3866 95.5,58.5C 92.3515,57.3032 90.0182,55.3032 88.5,52.5C 90.256,51.4479 90.9227,49.7812 90.5,47.5C 91.5,47.5 92.5,47.5 93.5,47.5C 93.5,45.8333 93.5,44.1667 93.5,42.5C 94.8333,42.5 95.5,41.8333 95.5,40.5 Z"/></g>
<g><path style="opacity:1" fill="#dc0000" d="M 40.5,52.5 C 43.5928,53.6681 45.9261,55.6681 47.5,58.5C 45.8333,58.5 44.1667,58.5 42.5,58.5C 42.5,59.5 42.5,60.5 42.5,61.5C 40.6122,59.0122 39.9455,56.0122 40.5,52.5 Z"/></g>
<g><path style="opacity:1" fill="#dc0000" d="M 86.5,52.5 C 87.0545,56.0122 86.3878,59.0122 84.5,61.5C 84.5,60.5 84.5,59.5 84.5,58.5C 82.8333,58.5 81.1667,58.5 79.5,58.5C 81.0739,55.6681 83.4072,53.6681 86.5,52.5 Z"/></g>
<g><path style="opacity:1" fill="#dc0000" d="M 38.5,127.5 C 36.8333,127.5 35.1667,127.5 33.5,127.5C 33.0962,126.244 32.4295,125.077 31.5,124C 33.984,122.394 33.984,120.894 31.5,119.5C 33.984,118.106 33.984,116.606 31.5,115C 33.984,113.394 33.984,111.894 31.5,110.5C 34.1667,108.833 34.1667,107.167 31.5,105.5C 34.1667,104.167 34.1667,102.833 31.5,101.5C 34.1667,99.8333 34.1667,98.1667 31.5,96.5C 33.984,95.1057 33.984,93.6057 31.5,92C 33.984,90.3943 33.984,88.8943 31.5,87.5C 33.984,86.1057 33.984,84.6057 31.5,83C 33.984,81.3943 33.984,79.8943 31.5,78.5C 34.1667,76.8333 34.1667,75.1667 31.5,73.5C 34.1667,72.1667 34.1667,70.8333 31.5,69.5C 34.1667,67.8333 34.1667,66.1667 31.5,64.5C 32.7277,62.679 34.3944,61.679 36.5,61.5C 36.4486,63.5695 37.1153,65.4029 38.5,67C 36.016,68.6057 36.016,70.1057 38.5,71.5C 36.016,72.8943 36.016,74.3943 38.5,76C 36.016,77.6057 36.016,79.1057 38.5,80.5C 35.8333,82.1667 35.8333,83.8333 38.5,85.5C 35.8333,86.8333 35.8333,88.1667 38.5,89.5C 35.8333,91.1667 35.8333,92.8333 38.5,94.5C 36.016,95.8943 36.016,97.3943 38.5,99C 36.016,100.606 36.016,102.106 38.5,103.5C 36.016,104.894 36.016,106.394 38.5,108C 36.016,109.606 36.016,111.106 38.5,112.5C 35.8333,114.167 35.8333,115.833 38.5,117.5C 35.8333,118.833 35.8333,120.167 38.5,121.5C 37.689,122.216 37.0223,123.05 36.5,124C 37.4295,125.077 38.0962,126.244 38.5,127.5 Z"/></g>
<g><path style="opacity:1" fill="#dc0000" d="M 42.5,61.5 C 44.1667,61.5 45.8333,61.5 47.5,61.5C 47.5,62.1667 47.5,62.8333 47.5,63.5C 45.2188,63.9227 43.5521,63.256 42.5,61.5 Z"/></g>
<g><path style="opacity:1" fill="#dc0000" d="M 79.5,61.5 C 81.1667,61.5 82.8333,61.5 84.5,61.5C 83.4479,63.256 81.7812,63.9227 79.5,63.5C 79.5,62.8333 79.5,62.1667 79.5,61.5 Z"/></g>
<g><path style="opacity:1" fill="#dc0000" d="M 95.5,127.5 C 93.8333,127.5 92.1667,127.5 90.5,127.5C 90.0962,126.244 89.4295,125.077 88.5,124C 90.984,122.394 90.984,120.894 88.5,119.5C 90.984,118.106 90.984,116.606 88.5,115C 90.984,113.394 90.984,111.894 88.5,110.5C 91.1667,108.833 91.1667,107.167 88.5,105.5C 91.1667,104.167 91.1667,102.833 88.5,101.5C 91.1667,99.8333 91.1667,98.1667 88.5,96.5C 90.984,95.1057 90.984,93.6057 88.5,92C 90.984,90.3943 90.984,88.8943 88.5,87.5C 90.984,86.1057 90.984,84.6057 88.5,83C 90.984,81.3943 90.984,79.8943 88.5,78.5C 91.1667,76.8333 91.1667,75.1667 88.5,73.5C 91.1667,72.1667 91.1667,70.8333 88.5,69.5C 91.1667,67.8333 91.1667,66.1667 88.5,64.5C 89.7277,62.679 91.3944,61.679 93.5,61.5C 93.4486,63.5695 94.1153,65.4029 95.5,67C 93.016,68.6057 93.016,70.1057 95.5,71.5C 93.016,72.8943 93.016,74.3943 95.5,76C 93.016,77.6057 93.016,79.1057 95.5,80.5C 92.8333,82.1667 92.8333,83.8333 95.5,85.5C 92.8333,86.8333 92.8333,88.1667 95.5,89.5C 92.8333,91.1667 92.8333,92.8333 95.5,94.5C 93.016,95.8943 93.016,97.3943 95.5,99C 93.016,100.606 93.016,102.106 95.5,103.5C 93.016,104.894 93.016,106.394 95.5,108C 93.016,109.606 93.016,111.106 95.5,112.5C 92.8333,114.167 92.8333,115.833 95.5,117.5C 92.8333,118.833 92.8333,120.167 95.5,121.5C 94.689,122.216 94.0223,123.05 93.5,124C 94.4295,125.077 95.0962,126.244 95.5,127.5 Z"/></g>
<g><path style="opacity:1" fill="#dc0000" d="M 49.5,127.5 C 48.1667,127.5 46.8333,127.5 45.5,127.5C 45.1788,125.952 44.1788,125.285 42.5,125.5C 42.5,124.5 42.5,123.5 42.5,122.5C 46.3354,121.996 46.3354,120.996 42.5,119.5C 46.3354,118.004 46.3354,117.004 42.5,116.5C 42.5,115.5 42.5,114.5 42.5,113.5C 46.3354,112.996 46.3354,111.996 42.5,110.5C 43.325,109.614 44.325,109.281 45.5,109.5C 45.5,108.5 45.5,107.5 45.5,106.5C 41.6646,105.996 41.6646,104.996 45.5,103.5C 41.6646,102.004 41.6646,101.004 45.5,100.5C 45.5,99.5 45.5,98.5 45.5,97.5C 41.6646,96.9965 41.6646,95.9965 45.5,94.5C 44.675,93.6143 43.675,93.281 42.5,93.5C 42.5,92.5 42.5,91.5 42.5,90.5C 46.3354,89.9965 46.3354,88.9965 42.5,87.5C 46.3354,86.0035 46.3354,85.0035 42.5,84.5C 42.5,83.5 42.5,82.5 42.5,81.5C 46.3354,80.9965 46.3354,79.9965 42.5,78.5C 43.325,77.6143 44.325,77.281 45.5,77.5C 45.5,76.5 45.5,75.5 45.5,74.5C 41.5,73.8333 41.5,73.1667 45.5,72.5C 45.5218,67.4982 46.8552,67.1648 49.5,71.5C 47.016,72.8943 47.016,74.3943 49.5,76C 47.016,77.6057 47.016,79.1057 49.5,80.5C 46.8333,82.1667 46.8333,83.8333 49.5,85.5C 46.8333,86.8333 46.8333,88.1667 49.5,89.5C 46.8333,91.1667 46.8333,92.8333 49.5,94.5C 47.016,95.8943 47.016,97.3943 49.5,99C 47.016,100.606 47.016,102.106 49.5,103.5C 47.016,104.894 47.016,106.394 49.5,108C 47.016,109.606 47.016,111.106 49.5,112.5C 46.8333,114.167 46.8333,115.833 49.5,117.5C 46.8333,118.833 46.8333,120.167 49.5,121.5C 48.689,122.216 48.0223,123.05 47.5,124C 48.4295,125.077 49.0962,126.244 49.5,127.5 Z"/></g>
<g><path style="opacity:1" fill="#dc0000" d="M 81.5,127.5 C 80.1667,127.5 78.8333,127.5 77.5,127.5C 77.9038,126.244 78.5705,125.077 79.5,124C 77.016,122.394 77.016,120.894 79.5,119.5C 77.016,118.106 77.016,116.606 79.5,115C 77.016,113.394 77.016,111.894 79.5,110.5C 76.8333,108.833 76.8333,107.167 79.5,105.5C 76.8333,104.167 76.8333,102.833 79.5,101.5C 76.8333,99.8333 76.8333,98.1667 79.5,96.5C 77.016,95.1057 77.016,93.6057 79.5,92C 77.016,90.3943 77.016,88.8943 79.5,87.5C 77.016,86.1057 77.016,84.6057 79.5,83C 77.016,81.3943 77.016,79.8943 79.5,78.5C 76.8333,76.8333 76.8333,75.1667 79.5,73.5C 77.1927,71.6724 77.526,70.0057 80.5,68.5C 81.4287,69.6888 81.762,71.0222 81.5,72.5C 85.5,73.1667 85.5,73.8333 81.5,74.5C 81.5,75.5 81.5,76.5 81.5,77.5C 85.3354,78.0035 85.3354,79.0035 81.5,80.5C 82.325,81.3857 83.325,81.719 84.5,81.5C 84.5,82.5 84.5,83.5 84.5,84.5C 80.6646,85.0035 80.6646,86.0035 84.5,87.5C 80.6646,88.9965 80.6646,89.9965 84.5,90.5C 84.5,91.5 84.5,92.5 84.5,93.5C 80.6646,94.0035 80.6646,95.0035 84.5,96.5C 83.675,97.3857 82.675,97.719 81.5,97.5C 81.5,98.5 81.5,99.5 81.5,100.5C 85.3354,101.004 85.3354,102.004 81.5,103.5C 85.3354,104.996 85.3354,105.996 81.5,106.5C 81.5,107.5 81.5,108.5 81.5,109.5C 85.3354,110.004 85.3354,111.004 81.5,112.5C 82.325,113.386 83.325,113.719 84.5,113.5C 84.5,114.5 84.5,115.5 84.5,116.5C 80.6646,117.004 80.6646,118.004 84.5,119.5C 80.6646,120.996 80.6646,121.996 84.5,122.5C 84.5,123.5 84.5,124.5 84.5,125.5C 82.8212,125.285 81.8212,125.952 81.5,127.5 Z"/></g>
<g><path style="opacity:1" fill="#dc0000" d="M 61.5,127.5 C 59.8333,127.5 58.1667,127.5 56.5,127.5C 56.0962,126.244 55.4295,125.077 54.5,124C 56.984,122.394 56.984,120.894 54.5,119.5C 56.984,118.106 56.984,116.606 54.5,115C 56.984,113.394 56.984,111.894 54.5,110.5C 57.1667,108.833 57.1667,107.167 54.5,105.5C 57.1667,104.167 57.1667,102.833 54.5,101.5C 57.1667,99.8333 57.1667,98.1667 54.5,96.5C 56.984,95.1057 56.984,93.6057 54.5,92C 56.984,90.3943 56.984,88.8943 54.5,87.5C 56.984,86.1057 56.984,84.6057 54.5,83C 56.984,81.3943 56.984,79.8943 54.5,78.5C 57.1667,76.8333 57.1667,75.1667 54.5,73.5C 57.1448,69.1648 58.4782,69.4982 58.5,74.5C 59.5,74.5 60.5,74.5 61.5,74.5C 61.5,75.5 61.5,76.5 61.5,77.5C 57.6646,78.0035 57.6646,79.0035 61.5,80.5C 60.675,81.3857 59.675,81.719 58.5,81.5C 58.5,82.5 58.5,83.5 58.5,84.5C 62.3354,85.0035 62.3354,86.0035 58.5,87.5C 62.3354,88.9965 62.3354,89.9965 58.5,90.5C 58.5,91.5 58.5,92.5 58.5,93.5C 62.3354,94.0035 62.3354,95.0035 58.5,96.5C 59.325,97.3857 60.325,97.719 61.5,97.5C 61.5,98.5 61.5,99.5 61.5,100.5C 57.6646,101.004 57.6646,102.004 61.5,103.5C 57.6646,104.996 57.6646,105.996 61.5,106.5C 61.5,107.5 61.5,108.5 61.5,109.5C 57.6646,110.004 57.6646,111.004 61.5,112.5C 60.675,113.386 59.675,113.719 58.5,113.5C 58.5,114.5 58.5,115.5 58.5,116.5C 62.3354,117.004 62.3354,118.004 58.5,119.5C 62.3354,120.996 62.3354,121.996 58.5,122.5C 58.5,123.5 58.5,124.5 58.5,125.5C 60.1788,125.285 61.1788,125.952 61.5,127.5 Z"/></g>
<g><path style="opacity:1" fill="#dc0000" d="M 70.5,127.5 C 68.8333,127.5 67.1667,127.5 65.5,127.5C 65.8212,125.952 66.8212,125.285 68.5,125.5C 68.5,124.5 68.5,123.5 68.5,122.5C 64.6646,121.996 64.6646,120.996 68.5,119.5C 64.6646,118.004 64.6646,117.004 68.5,116.5C 68.5,115.5 68.5,114.5 68.5,113.5C 64.6646,112.996 64.6646,111.996 68.5,110.5C 67.675,109.614 66.675,109.281 65.5,109.5C 65.5,108.5 65.5,107.5 65.5,106.5C 69.3354,105.996 69.3354,104.996 65.5,103.5C 69.3354,102.004 69.3354,101.004 65.5,100.5C 65.5,99.5 65.5,98.5 65.5,97.5C 69.3354,96.9965 69.3354,95.9965 65.5,94.5C 66.325,93.6143 67.325,93.281 68.5,93.5C 68.5,92.5 68.5,91.5 68.5,90.5C 64.6646,89.9965 64.6646,88.9965 68.5,87.5C 64.6646,86.0035 64.6646,85.0035 68.5,84.5C 68.5,83.5 68.5,82.5 68.5,81.5C 64.6646,80.9965 64.6646,79.9965 68.5,78.5C 67.675,77.6143 66.675,77.281 65.5,77.5C 65.5,76.5 65.5,75.5 65.5,74.5C 66.5,74.5 67.5,74.5 68.5,74.5C 68.5218,69.4982 69.8552,69.1648 72.5,73.5C 69.8333,75.1667 69.8333,76.8333 72.5,78.5C 70.016,79.8943 70.016,81.3943 72.5,83C 70.016,84.6057 70.016,86.1057 72.5,87.5C 70.016,88.8943 70.016,90.3943 72.5,92C 70.016,93.6057 70.016,95.1057 72.5,96.5C 69.8333,98.1667 69.8333,99.8333 72.5,101.5C 69.8333,102.833 69.8333,104.167 72.5,105.5C 69.8333,107.167 69.8333,108.833 72.5,110.5C 70.016,111.894 70.016,113.394 72.5,115C 70.016,116.606 70.016,118.106 72.5,119.5C 70.016,120.894 70.016,122.394 72.5,124C 71.5705,125.077 70.9038,126.244 70.5,127.5 Z"/></g>
</svg>
