<?xml version="1.0" standalone="no"?>
<!DOCTYPE svg PUBLIC "-//W3C//DTD SVG 20010904//EN"
 "http://www.w3.org/TR/2001/REC-SVG-20010904/DTD/svg10.dtd">
<svg version="1.0" xmlns="http://www.w3.org/2000/svg"
 width="128.000000pt" height="128.000000pt" viewBox="0 0 128.000000 128.000000"
 preserveAspectRatio="xMidYMid meet">

<g transform="translate(0.000000,128.000000) scale(0.100000,-0.100000)"
fill="#000000" stroke="none">
<path d="M570 1045 c0 -11 -11 -15 -41 -15 -39 0 -69 -17 -69 -39 0 -8 -67
-11 -210 -11 -133 0 -210 -4 -210 -10 0 -5 7 -10 15 -10 8 0 15 -4 15 -10 0
-5 9 -10 20 -10 11 0 20 -7 20 -15 0 -12 14 -15 70 -15 40 0 70 -4 70 -10 0
-5 15 -10 33 -10 21 0 38 -7 47 -20 8 -11 20 -20 27 -20 7 0 13 -11 13 -25 0
-14 5 -25 10 -25 6 0 10 -11 10 -25 0 -14 5 -25 10 -25 6 0 10 -18 10 -41 0
-44 17 -69 49 -69 12 0 21 -4 21 -10 0 -5 11 -10 25 -10 16 0 25 -6 25 -15 0
-10 10 -15 30 -15 20 0 30 5 30 15 0 8 -9 15 -20 15 -11 0 -20 5 -20 10 0 6 9
10 20 10 11 0 20 5 20 10 0 6 -4 10 -10 10 -5 0 -10 7 -10 15 0 9 9 15 25 15
16 0 25 -6 25 -15 0 -8 9 -15 20 -15 11 0 20 7 20 15 0 9 9 15 25 15 16 0 25
-6 25 -15 0 -8 -4 -15 -10 -15 -5 0 -10 -4 -10 -10 0 -5 9 -10 20 -10 11 0 20
-4 20 -10 0 -5 -9 -10 -20 -10 -11 0 -20 -7 -20 -15 0 -10 10 -15 30 -15 20 0
30 5 30 15 0 9 9 15 25 15 14 0 25 5 25 10 0 6 9 10 21 10 32 0 49 25 49 69 0
23 5 41 10 41 6 0 10 16 10 35 0 19 5 35 10 35 6 0 10 7 10 15 0 8 6 15 13 15
7 0 19 9 27 20 9 13 26 20 47 20 18 0 33 5 33 10 0 6 30 10 70 10 56 0 70 3
70 15 0 8 9 15 20 15 11 0 20 5 20 10 0 6 7 10 15 10 8 0 15 5 15 10 0 6 -77
10 -210 10 -143 0 -210 3 -210 11 0 22 -30 39 -69 39 -30 0 -41 4 -41 15 0 12
-14 15 -70 15 -56 0 -70 -3 -70 -15z m-410 -95 c0 -5 -4 -10 -10 -10 -5 0 -10
5 -10 10 0 6 5 10 10 10 6 0 10 -4 10 -10z m210 0 c0 -5 9 -10 20 -10 11 0 20
-7 20 -15 0 -9 9 -15 23 -15 12 0 29 -9 37 -20 11 -15 26 -20 57 -20 24 0 43
-4 43 -10 0 -6 30 -10 70 -10 40 0 70 4 70 10 0 6 19 10 43 10 31 0 46 5 57
20 8 11 25 20 37 20 14 0 23 6 23 15 0 8 9 15 20 15 11 0 20 5 20 10 0 6 38
10 95 10 57 0 95 -4 95 -10 0 -6 -30 -10 -70 -10 -56 0 -70 -3 -70 -15 0 -9
-9 -15 -25 -15 -14 0 -25 -4 -25 -10 0 -5 -9 -10 -20 -10 -11 0 -20 -4 -20
-10 0 -5 -11 -10 -25 -10 -14 0 -25 -4 -25 -10 0 -5 -16 -10 -35 -10 -24 0
-35 -5 -35 -15 0 -8 -9 -15 -20 -15 -11 0 -20 -4 -20 -10 0 -6 -30 -10 -70
-10 -40 0 -70 4 -70 10 0 6 -9 10 -20 10 -11 0 -20 7 -20 15 0 10 -11 15 -35
15 -19 0 -35 5 -35 10 0 6 -11 10 -25 10 -14 0 -25 5 -25 10 0 6 -9 10 -20 10
-11 0 -20 5 -20 10 0 6 -11 10 -25 10 -16 0 -25 6 -25 15 0 12 -14 15 -70 15
-40 0 -70 4 -70 10 0 6 38 10 95 10 57 0 95 -4 95 -10z m770 0 c0 -5 -4 -10
-10 -10 -5 0 -10 5 -10 10 0 6 5 10 10 10 6 0 10 -4 10 -10z m-610 -160 c0 -5
-11 -10 -25 -10 -16 0 -25 -6 -25 -15 0 -11 12 -15 45 -15 25 0 45 -4 45 -10
0 -5 -16 -10 -35 -10 -19 0 -35 -4 -35 -10 0 -5 11 -10 25 -10 14 0 25 -4 25
-10 0 -19 -65 -11 -80 10 -8 11 -18 20 -23 20 -10 0 -37 26 -37 35 0 3 6 12
13 20 14 16 107 21 107 5z m326 -4 c8 -8 14 -17 14 -21 0 -9 -27 -35 -37 -35
-5 0 -15 -9 -23 -20 -15 -21 -80 -29 -80 -10 0 6 11 10 25 10 14 0 25 5 25 10
0 6 -16 10 -35 10 -19 0 -35 5 -35 10 0 6 20 10 45 10 33 0 45 4 45 15 0 9 -9
15 -25 15 -14 0 -25 5 -25 10 0 16 89 12 106 -4z m-166 -21 c0 -11 -12 -15
-50 -15 -38 0 -50 4 -50 15 0 11 12 15 50 15 38 0 50 -4 50 -15z m-30 -45 c0
-5 -9 -10 -20 -10 -11 0 -20 5 -20 10 0 6 9 10 20 10 11 0 20 -4 20 -10z
m-180 -45 c0 -9 9 -15 25 -15 14 0 25 -4 25 -10 0 -5 -11 -10 -25 -10 -14 0
-25 5 -25 10 0 6 -11 10 -25 10 -16 0 -25 6 -25 15 0 9 9 15 25 15 16 0 25 -6
25 -15z m370 0 c0 -9 -9 -15 -25 -15 -14 0 -25 -4 -25 -10 0 -5 -11 -10 -25
-10 -14 0 -25 5 -25 10 0 6 11 10 25 10 16 0 25 6 25 15 0 9 9 15 25 15 16 0
25 -6 25 -15z"/>
<path d="M300 860 c0 -5 -7 -10 -15 -10 -8 0 -15 -7 -15 -15 0 -8 -4 -15 -10
-15 -5 0 -10 -9 -10 -20 0 -11 -4 -20 -10 -20 -15 0 -12 -39 4 -56 8 -8 24
-14 35 -14 12 0 21 -4 21 -10 0 -5 9 -10 20 -10 11 0 20 5 20 10 0 6 5 10 11
10 18 0 46 33 31 38 -6 2 -12 15 -12 28 0 15 -6 24 -15 24 -9 0 -15 9 -15 21
0 11 -6 27 -14 35 -17 16 -26 18 -26 4z"/>
<path d="M953 855 c-7 -8 -13 -23 -13 -35 0 -11 -7 -20 -15 -20 -9 0 -15 -9
-15 -24 0 -13 -6 -26 -12 -28 -15 -5 13 -38 31 -38 6 0 11 -4 11 -10 0 -5 9
-10 20 -10 11 0 20 5 20 10 0 6 9 10 21 10 11 0 27 6 35 14 16 17 19 56 4 56
-5 0 -10 9 -10 20 0 11 -4 20 -10 20 -5 0 -10 7 -10 15 0 8 -7 15 -15 15 -8 0
-15 5 -15 10 0 14 -13 12 -27 -5z"/>
<path d="M330 643 c-10 -12 -11 -18 -2 -21 16 -5 15 -29 0 -35 -10 -4 -9 -8 2
-16 13 -10 13 -12 0 -22 -11 -8 -12 -12 -2 -16 6 -2 12 -11 12 -18 0 -7 -6
-16 -12 -18 -10 -4 -9 -8 2 -17 11 -9 12 -13 3 -17 -7 -2 -13 -11 -13 -18 0
-7 6 -16 13 -18 9 -4 8 -8 -3 -16 -13 -10 -13 -12 0 -22 11 -8 12 -12 3 -16
-7 -2 -13 -11 -13 -18 0 -7 6 -16 13 -18 9 -4 8 -8 -3 -17 -11 -9 -12 -13 -2
-17 6 -2 12 -11 12 -18 0 -7 -6 -16 -12 -18 -10 -4 -9 -8 2 -16 13 -10 13 -12
0 -22 -11 -8 -12 -12 -2 -16 6 -2 12 -11 12 -18 0 -7 -6 -16 -12 -18 -10 -4
-9 -8 2 -17 11 -9 12 -13 3 -17 -17 -6 -17 -30 0 -36 9 -4 8 -8 -3 -16 -13
-10 -13 -12 0 -22 11 -8 12 -12 3 -16 -17 -6 -16 -21 1 -39 17 -16 56 -19 56
-4 0 6 -4 10 -10 10 -14 0 -12 27 3 33 9 4 8 8 -3 16 -13 10 -13 12 0 22 11 8
12 12 3 16 -7 2 -13 11 -13 18 0 7 6 16 13 18 9 4 8 8 -3 17 -11 9 -12 13 -2
17 6 2 12 11 12 18 0 7 -6 16 -12 18 -10 4 -9 8 2 16 13 10 13 12 0 22 -11 8
-12 12 -2 16 6 2 12 11 12 18 0 7 -6 16 -12 18 -10 4 -9 8 2 17 11 9 12 13 3
17 -7 2 -13 11 -13 18 0 7 6 16 13 18 9 4 8 8 -3 16 -13 10 -13 12 0 22 11 8
12 12 3 16 -7 2 -13 11 -13 18 0 7 6 16 13 18 9 4 8 8 -3 17 -11 9 -12 13 -2
17 6 2 12 11 12 18 0 7 -6 16 -12 18 -10 4 -9 8 2 16 13 10 13 12 0 22 -11 8
-12 12 -2 16 14 6 16 33 2 33 -5 0 -10 9 -10 20 0 24 -19 25 -40 3z"/>
<path d="M900 643 c-10 -12 -11 -18 -2 -21 16 -5 15 -29 0 -35 -10 -4 -9 -8 2
-16 13 -10 13 -12 0 -22 -11 -8 -12 -12 -2 -16 6 -2 12 -11 12 -18 0 -7 -6
-16 -12 -18 -10 -4 -9 -8 2 -17 11 -9 12 -13 3 -17 -7 -2 -13 -11 -13 -18 0
-7 6 -16 13 -18 9 -4 8 -8 -3 -16 -13 -10 -13 -12 0 -22 11 -8 12 -12 3 -16
-7 -2 -13 -11 -13 -18 0 -7 6 -16 13 -18 9 -4 8 -8 -3 -17 -11 -9 -12 -13 -2
-17 6 -2 12 -11 12 -18 0 -7 -6 -16 -12 -18 -10 -4 -9 -8 2 -16 13 -10 13 -12
0 -22 -11 -8 -12 -12 -2 -16 6 -2 12 -11 12 -18 0 -7 -6 -16 -12 -18 -10 -4
-9 -8 2 -17 11 -9 12 -13 3 -17 -7 -2 -13 -11 -13 -18 0 -7 6 -16 13 -18 9 -4
8 -8 -3 -16 -13 -10 -13 -12 0 -22 11 -8 12 -12 3 -16 -17 -6 -16 -21 1 -39
17 -16 56 -19 56 -4 0 6 -4 10 -10 10 -14 0 -12 27 3 33 9 4 8 8 -3 16 -13 10
-13 12 0 22 11 8 12 12 3 16 -7 2 -13 11 -13 18 0 7 6 16 13 18 9 4 8 8 -3 17
-11 9 -12 13 -2 17 6 2 12 11 12 18 0 7 -6 16 -12 18 -10 4 -9 8 2 16 13 10
13 12 0 22 -11 8 -12 12 -2 16 6 2 12 11 12 18 0 7 -6 16 -12 18 -10 4 -9 8 2
17 11 9 12 13 3 17 -7 2 -13 11 -13 18 0 7 6 16 13 18 9 4 8 8 -3 16 -13 10
-13 12 0 22 11 8 12 12 3 16 -7 2 -13 11 -13 18 0 7 6 16 13 18 9 4 8 8 -3 17
-11 9 -12 13 -2 17 6 2 12 11 12 18 0 7 -6 16 -12 18 -10 4 -9 8 2 16 13 10
13 12 0 22 -11 8 -12 12 -2 16 14 6 16 33 2 33 -5 0 -10 9 -10 20 0 24 -19 25
-40 3z"/>
<path d="M460 570 c0 -11 -7 -20 -15 -20 -8 0 -15 -4 -15 -10 0 -5 7 -10 15
-10 8 0 15 -7 15 -15 0 -8 -7 -15 -15 -15 -8 0 -15 -4 -15 -10 0 -5 7 -10 15
-10 8 0 15 -4 15 -10 0 -5 -7 -10 -15 -10 -8 0 -15 -7 -15 -15 0 -8 7 -15 15
-15 8 0 15 -4 15 -10 0 -5 -7 -10 -15 -10 -8 0 -15 -4 -15 -10 0 -5 7 -10 15
-10 8 0 15 -4 15 -10 0 -5 -7 -10 -15 -10 -8 0 -15 -7 -15 -15 0 -8 7 -15 15
-15 8 0 15 -4 15 -10 0 -5 -7 -10 -15 -10 -8 0 -15 -4 -15 -10 0 -5 7 -10 15
-10 8 0 15 -7 15 -15 0 -8 -7 -15 -15 -15 -8 0 -15 -4 -15 -10 0 -5 7 -10 15
-10 8 0 15 -4 15 -10 0 -5 -7 -10 -15 -10 -8 0 -15 -4 -15 -10 0 -5 7 -10 15
-10 8 0 15 -7 15 -15 0 -8 -7 -15 -15 -15 -8 0 -15 -4 -15 -10 0 -5 7 -10 15
-10 8 0 15 -4 15 -10 0 -5 -7 -10 -15 -10 -8 0 -15 -7 -15 -15 0 -8 7 -15 15
-15 8 0 15 -4 15 -10 0 -5 -7 -10 -15 -10 -8 0 -15 -4 -15 -10 0 -5 7 -10 15
-10 8 0 15 -4 15 -10 0 -5 -7 -10 -15 -10 -8 0 -15 -7 -15 -15 0 -8 7 -15 15
-15 8 0 15 -4 15 -10 0 -5 9 -10 20 -10 11 0 20 5 20 10 0 6 -4 10 -10 10 -14
0 -12 27 3 33 9 4 8 8 -3 16 -13 10 -13 12 0 22 11 8 12 12 3 16 -7 2 -13 11
-13 18 0 7 6 16 13 18 9 4 8 8 -3 17 -11 9 -12 13 -2 17 6 2 12 11 12 18 0 7
-6 16 -12 18 -10 4 -9 8 2 16 13 10 13 12 0 22 -11 8 -12 12 -2 16 6 2 12 11
12 18 0 7 -6 16 -12 18 -10 4 -9 8 2 17 11 9 12 13 3 17 -7 2 -13 11 -13 18 0
7 6 16 13 18 9 4 8 8 -3 16 -13 10 -13 12 0 22 11 8 12 12 3 16 -7 2 -13 11
-13 18 0 7 6 16 13 18 9 4 8 8 -3 17 -11 9 -12 13 -2 17 6 2 12 11 12 18 0 7
-6 16 -12 18 -10 4 -10 8 1 15 12 9 12 13 -2 26 -21 21 -27 20 -27 -4z"/>
<path d="M791 574 c-12 -14 -12 -18 0 -26 11 -7 11 -11 2 -15 -7 -2 -13 -11
-13 -18 0 -7 6 -16 13 -18 9 -4 8 -8 -3 -17 -11 -9 -12 -13 -2 -17 6 -2 12
-11 12 -18 0 -7 -6 -16 -12 -18 -10 -4 -9 -8 2 -16 13 -10 13 -12 0 -22 -11
-8 -12 -12 -2 -16 6 -2 12 -11 12 -18 0 -7 -6 -16 -12 -18 -10 -4 -9 -8 2 -17
11 -9 12 -13 3 -17 -7 -2 -13 -11 -13 -18 0 -7 6 -16 13 -18 9 -4 8 -8 -3 -16
-13 -10 -13 -12 0 -22 11 -8 12 -12 3 -16 -7 -2 -13 -11 -13 -18 0 -7 6 -16
13 -18 9 -4 8 -8 -3 -17 -11 -9 -12 -13 -2 -17 6 -2 12 -11 12 -18 0 -7 -6
-16 -12 -18 -10 -4 -9 -8 2 -16 13 -10 13 -12 0 -22 -11 -8 -12 -12 -2 -16 14
-6 16 -33 2 -33 -5 0 -10 -4 -10 -10 0 -5 9 -10 20 -10 11 0 20 5 20 10 0 6 7
10 15 10 8 0 15 7 15 15 0 8 -7 15 -15 15 -8 0 -15 5 -15 10 0 6 7 10 15 10 8
0 15 5 15 10 0 6 -7 10 -15 10 -8 0 -15 5 -15 10 0 6 7 10 15 10 8 0 15 7 15
15 0 8 -7 15 -15 15 -8 0 -15 5 -15 10 0 6 7 10 15 10 8 0 15 5 15 10 0 6 -7
10 -15 10 -8 0 -15 7 -15 15 0 8 7 15 15 15 8 0 15 5 15 10 0 6 -7 10 -15 10
-8 0 -15 5 -15 10 0 6 7 10 15 10 8 0 15 5 15 10 0 6 -7 10 -15 10 -8 0 -15 7
-15 15 0 8 7 15 15 15 8 0 15 5 15 10 0 6 -7 10 -15 10 -8 0 -15 5 -15 10 0 6
7 10 15 10 8 0 15 7 15 15 0 8 -7 15 -15 15 -8 0 -15 5 -15 10 0 6 7 10 15 10
8 0 15 5 15 10 0 6 -7 10 -15 10 -8 0 -15 5 -15 10 0 6 7 10 15 10 8 0 15 7
15 15 0 8 -7 15 -15 15 -8 0 -15 5 -15 10 0 6 7 10 15 10 8 0 15 5 15 10 0 6
-7 10 -15 10 -8 0 -15 7 -15 15 0 8 7 15 15 15 8 0 15 5 15 10 0 6 -7 10 -15
10 -8 0 -15 9 -15 20 0 24 -10 25 -29 4z"/>
<path d="M560 553 c-10 -12 -11 -18 -2 -21 16 -5 15 -29 0 -35 -10 -4 -9 -8 2
-17 11 -9 12 -13 3 -17 -7 -2 -13 -11 -13 -18 0 -7 6 -16 13 -18 9 -4 8 -8 -3
-16 -13 -10 -13 -12 0 -22 11 -8 12 -12 3 -16 -7 -2 -13 -11 -13 -18 0 -7 6
-16 13 -18 9 -4 8 -8 -3 -17 -11 -9 -12 -13 -2 -17 6 -2 12 -11 12 -18 0 -7
-6 -16 -12 -18 -10 -4 -9 -8 2 -16 13 -10 13 -12 0 -22 -11 -8 -12 -12 -2 -16
6 -2 12 -11 12 -18 0 -7 -6 -16 -12 -18 -10 -4 -9 -8 2 -17 11 -9 12 -13 3
-17 -7 -2 -13 -11 -13 -18 0 -7 6 -16 13 -18 9 -4 8 -8 -3 -16 -13 -10 -13
-12 0 -22 11 -8 12 -12 3 -16 -17 -6 -16 -21 1 -39 17 -16 56 -19 56 -4 0 6
-7 10 -15 10 -8 0 -15 7 -15 15 0 8 7 15 15 15 8 0 15 5 15 10 0 6 -7 10 -15
10 -8 0 -15 5 -15 10 0 6 7 10 15 10 8 0 15 5 15 10 0 6 -7 10 -15 10 -8 0
-15 7 -15 15 0 8 7 15 15 15 8 0 15 5 15 10 0 6 -7 10 -15 10 -8 0 -15 5 -15
10 0 6 7 10 15 10 8 0 15 7 15 15 0 8 -7 15 -15 15 -8 0 -15 5 -15 10 0 6 7
10 15 10 8 0 15 5 15 10 0 6 -7 10 -15 10 -8 0 -15 5 -15 10 0 6 7 10 15 10 8
0 15 7 15 15 0 8 -7 15 -15 15 -8 0 -15 5 -15 10 0 6 7 10 15 10 8 0 15 5 15
10 0 6 -7 10 -15 10 -8 0 -15 7 -15 15 0 8 7 15 15 15 8 0 15 5 15 10 0 6 -7
10 -15 10 -8 0 -15 5 -15 10 0 6 7 10 15 10 8 0 15 5 15 10 0 6 -7 10 -15 10
-8 0 -15 7 -15 15 0 8 7 15 15 15 8 0 15 5 15 10 0 6 -7 10 -15 10 -8 0 -15 5
-15 10 0 6 7 10 15 10 8 0 15 7 15 15 0 8 -7 15 -15 15 -8 0 -15 9 -15 20 0
24 -10 25 -30 3z"/>
<path d="M690 550 c0 -11 -7 -20 -15 -20 -8 0 -15 -7 -15 -15 0 -8 7 -15 15
-15 8 0 15 -4 15 -10 0 -5 -7 -10 -15 -10 -8 0 -15 -4 -15 -10 0 -5 7 -10 15
-10 8 0 15 -7 15 -15 0 -8 -7 -15 -15 -15 -8 0 -15 -4 -15 -10 0 -5 7 -10 15
-10 8 0 15 -4 15 -10 0 -5 -7 -10 -15 -10 -8 0 -15 -4 -15 -10 0 -5 7 -10 15
-10 8 0 15 -7 15 -15 0 -8 -7 -15 -15 -15 -8 0 -15 -4 -15 -10 0 -5 7 -10 15
-10 8 0 15 -4 15 -10 0 -5 -7 -10 -15 -10 -8 0 -15 -7 -15 -15 0 -8 7 -15 15
-15 8 0 15 -4 15 -10 0 -5 -7 -10 -15 -10 -8 0 -15 -4 -15 -10 0 -5 7 -10 15
-10 8 0 15 -4 15 -10 0 -5 -7 -10 -15 -10 -8 0 -15 -7 -15 -15 0 -8 7 -15 15
-15 8 0 15 -4 15 -10 0 -5 -7 -10 -15 -10 -8 0 -15 -4 -15 -10 0 -5 7 -10 15
-10 8 0 15 -7 15 -15 0 -8 -7 -15 -15 -15 -8 0 -15 -4 -15 -10 0 -5 7 -10 15
-10 8 0 15 -4 15 -10 0 -5 -7 -10 -15 -10 -8 0 -15 -4 -15 -10 0 -5 7 -10 15
-10 8 0 15 -7 15 -15 0 -8 -7 -15 -15 -15 -8 0 -15 -4 -15 -10 0 -15 39 -12
56 4 17 18 18 33 2 39 -10 4 -9 8 2 16 13 10 13 12 0 22 -11 8 -12 12 -2 16 6
2 12 11 12 18 0 7 -6 16 -12 18 -10 4 -9 8 2 17 11 9 12 13 3 17 -7 2 -13 11
-13 18 0 7 6 16 13 18 9 4 8 8 -3 16 -13 10 -13 12 0 22 11 8 12 12 3 16 -7 2
-13 11 -13 18 0 7 6 16 13 18 9 4 8 8 -3 17 -11 9 -12 13 -2 17 6 2 12 11 12
18 0 7 -6 16 -12 18 -10 4 -9 8 2 16 13 10 13 12 0 22 -11 8 -12 12 -2 16 6 2
12 11 12 18 0 7 -6 16 -12 18 -10 4 -9 8 2 17 11 9 12 13 3 17 -17 6 -17 30
-1 35 9 3 8 9 -4 21 -22 22 -28 21 -28 -3z"/>
</g>
</svg>
